# xmcd
#
# Track frame offsets:
#	150
#	29713
#	51486
#	66804
#	85826
#	99175
#	120789
#	133420
#	148606
#	169104
#	206521
#	238456
#	259898
#	270837
#	309334
#
# Disc length: 4374
#
# Revision: 13
# Processed by: cddbd v1.5.1PL0 Copyright (c) Steve Scherf et al.
# Submitted via: CDex 1.51
# Normalized: r12:DSETVAR1,TDELIM( - )
#
DISCID=d711140f
DTITLE=Various Artist - Satin Doll
DYEAR=2003
DGENRE=Jazz
TTITLE0=Barney Kessel - Satin Doll
TTITLE1=Bill Coleman and Ben Webster - Satin Doll.
TTITLE2=Billy Eckstine - Satin Doll
TTITLE3=Charlie Byrd - Satin Doll.
TTITLE4=Count Basie - Satin Doll
TTITLE5=Dr. John - Satin Doll.
TTITLE6=Ella Fitzgerald and Duke Ellington - Satin Doll
TTITLE7=Fitzgerald, Ella(with Count Basie) - Satin Doll
TTITLE8=J.J. Johnson - Satin Doll
TTITLE9=Jaco Pastorius - Satin Doll
TTITLE10=Jimmy_Smith - Satin_Doll.
TTITLE11=Joe Pass - Satin Doll.
TTITLE12=Nancy Wilson - Satin Doll.
TTITLE13=Oscar Peterson - Satin Doll
TTITLE14=Stan Kenton - Satin Doll
EXTD=YEAR: 2003
EXTT0=
EXTT1=
EXTT2=
EXTT3=
EXTT4=
EXTT5=
EXTT6=
EXTT7=
EXTT8=
EXTT9=
EXTT10=
EXTT11=
EXTT12=
EXTT13=
EXTT14=
PLAYORDER=
